<svg width="50" height="50" viewBox="0 0 50 50" fill="none" xmlns="http://www.w3.org/2000/svg">
<g id="006-check in" clip-path="url(#clip0_4737_2)">
<g id="Group">
<path id="Vector" d="M38.1662 32.1934V24.5351C38.1662 23.756 37.5324 23.1222 36.7533 23.1222H30.5495C30.7658 22.8068 30.7038 22.3736 30.399 22.1336C30.0813 21.8834 29.6207 21.938 29.3705 22.2558L28.6881 23.1222H27.0301C26.251 23.1222 25.6172 23.756 25.6172 24.5351V32.1934C25.6172 32.9725 26.251 33.6063 27.0301 33.6063H36.7533C37.5323 33.6063 38.1662 32.9724 38.1662 32.1934ZM36.7014 32.1414H27.082V24.5871H36.7014V32.1414Z" fill="#AA8453"/>
<path id="Vector_2" d="M35.5282 35.6406H28.2559C27.8513 35.6406 27.5234 35.9685 27.5234 36.373C27.5234 36.7776 27.8513 37.1055 28.2559 37.1055H35.5282C35.9328 37.1055 36.2606 36.7776 36.2606 36.373C36.2606 35.9685 35.9328 35.6406 35.5282 35.6406Z" fill="#AA8453"/>
<path id="Vector_3" d="M35.5282 38.8281H28.2559C27.8513 38.8281 27.5234 39.156 27.5234 39.5605C27.5234 39.9651 27.8513 40.293 28.2559 40.293H35.5282C35.9328 40.293 36.2606 39.9651 36.2606 39.5605C36.2606 39.156 35.9328 38.8281 35.5282 38.8281Z" fill="#AA8453"/>
<path id="Vector_4" d="M48.9473 7.43615H45.3541V6.57921C45.3541 6.19269 45.1265 5.84005 44.7742 5.68087C44.4221 5.52179 44.007 5.584 43.7169 5.83937L39.7484 9.33302C39.7484 9.33302 39.7483 9.33312 39.7482 9.33312C39.5358 9.52023 39.4141 9.78986 39.4141 10.0729C39.4141 10.3559 39.5358 10.6255 39.7484 10.8127L43.7169 14.3064C43.9002 14.4677 44.1334 14.5521 44.369 14.5521C44.5063 14.5521 44.6445 14.5235 44.7742 14.4649C45.1264 14.3057 45.3541 13.953 45.3541 13.5665V12.7097H48.9473C49.4908 12.7097 49.9331 12.2675 49.9331 11.7238V8.42199C49.933 7.87834 49.4908 7.43615 48.9473 7.43615ZM48.4682 11.2448H44.875C44.3314 11.2448 43.8892 11.687 43.8892 12.2307V12.5066L41.1248 10.0729L43.8892 7.63918V7.91525C43.8892 8.45871 44.3313 8.90099 44.875 8.90099H48.4682V11.2448Z" fill="#AA8453"/>
<path id="Vector_5" d="M40.3408 18.3764H37.837V3.27168C37.837 2.22695 37.0178 1.37227 35.9883 1.31045V1.30156C35.9883 0.583789 35.4044 0 34.6867 0H29.0931C28.3753 0 27.7915 0.583887 27.7915 1.30156V1.31045C26.762 1.37227 25.9428 2.22695 25.9428 3.27168V7.04932H8.0958C7.69121 7.04932 7.36338 7.37715 7.36338 7.78174C7.36338 8.18633 7.69121 8.51416 8.0958 8.51416H25.9428V10.3715H1.52734V8.51416H5.16738C5.57197 8.51416 5.89981 8.18633 5.89981 7.78174C5.89981 7.37715 5.57197 7.04932 5.16738 7.04932H0.794922C0.390332 7.04932 0.0625 7.37715 0.0625 7.78174V39.7274C0.0625 40.132 0.390332 40.4599 0.794922 40.4599H9.18584C9.59043 40.4599 9.91826 40.132 9.91826 39.7274C9.91826 39.3228 9.59043 38.995 9.18584 38.995H1.52734V14.8613H25.9428V18.3764H23.439C22.0913 18.3764 20.9949 19.4729 20.9949 20.8204V38.9949H12.1143C11.7097 38.9949 11.3818 39.3228 11.3818 39.7273C11.3818 40.1319 11.7097 40.4598 12.1143 40.4598H20.9949V44.9306C20.9949 46.2782 22.0914 47.3746 23.439 47.3746H24.9531V47.5329C24.9531 48.8933 26.0598 49.9999 27.4201 49.9999C28.7805 49.9999 29.8871 48.8933 29.8871 47.5329V47.3746H33.8928V47.5329C33.8928 48.8933 34.9994 49.9999 36.3598 49.9999C37.7201 49.9999 38.8268 48.8933 38.8268 47.5329V47.3746H40.3409C41.6886 47.3746 42.785 46.2781 42.785 44.9306V31.0522C42.785 30.6477 42.4571 30.3198 42.0525 30.3198C41.648 30.3198 41.3201 30.6477 41.3201 31.0522V44.9307C41.3201 45.4706 40.8809 45.9099 40.3409 45.9099H23.4391C22.8991 45.9099 22.4599 45.4706 22.4599 44.9307V20.8204C22.4599 20.2805 22.8991 19.8412 23.4391 19.8412H40.3408C40.8808 19.8412 41.32 20.2805 41.32 20.8204V28.1237C41.32 28.5283 41.6479 28.8562 42.0524 28.8562C42.457 28.8562 42.7849 28.5283 42.7849 28.1237V20.8204C42.7849 19.4728 41.6885 18.3764 40.3408 18.3764ZM37.3618 47.3747V47.533C37.3618 48.0855 36.9122 48.5352 36.3597 48.5352C35.8071 48.5352 35.3575 48.0855 35.3575 47.533V47.3747H37.3618ZM28.4223 47.3747V47.533C28.4223 48.0855 27.9727 48.5352 27.4201 48.5352C26.8676 48.5352 26.418 48.0855 26.418 47.533V47.3747H28.4223ZM29.2564 1.46484H34.5235V2.60889H29.2564V1.46484ZM27.4076 8.51416H32.0773V10.3715H27.4076V8.51416ZM28.7605 13.3964H27.4076V11.8362H28.7605V13.3964ZM25.9428 11.8362V13.3964H1.52734V11.8362H25.9428ZM27.4076 14.8613H32.0773V18.3764H27.4076V14.8613ZM33.5422 18.3764V14.1289C33.5422 13.7243 33.2144 13.3965 32.8098 13.3965H30.2253V11.8362H32.8098C33.2144 11.8362 33.5422 11.5084 33.5422 11.1038V7.78174C33.5422 7.37715 33.2144 7.04932 32.8098 7.04932H27.4076V3.27168C27.4076 3.03545 27.5721 2.83809 27.7921 2.78477C27.7989 3.49668 28.3795 4.07373 29.0931 4.07373H34.6867C35.4002 4.07373 35.9808 3.49658 35.9877 2.78477C36.2077 2.83809 36.3722 3.03545 36.3722 3.27168V18.3764H33.5422Z" fill="#AA8453"/>
</g>
</g>
<defs>
<clipPath id="clip0_4737_2">
<rect width="50" height="50" fill="white"/>
</clipPath>
</defs>
</svg>
