<svg width="40" height="40" viewBox="0 0 40 40" fill="none" xmlns="http://www.w3.org/2000/svg">
<g id="011-free wifi" clip-path="url(#clip0_4917_395)">
<g id="Group">
<path id="Vector" d="M15.7389 18.3828C16.0626 18.3828 16.3248 18.1205 16.3248 17.7969C16.3248 17.4732 16.0626 17.2109 15.7389 17.2109H14.2148C13.8912 17.2109 13.6289 17.4732 13.6289 17.7969V21.557C13.6289 21.8807 13.8912 22.143 14.2148 22.143C14.5385 22.143 14.8008 21.8807 14.8008 21.557V20.2273H15.6178C15.9415 20.2273 16.2037 19.965 16.2037 19.6413C16.2037 19.3177 15.9415 19.0554 15.6178 19.0554H14.8008V18.3828H15.7389Z" fill="#AA8453"/>
<path id="Vector_2" d="M22.5854 18.3828C22.9091 18.3828 23.1713 18.1205 23.1713 17.7969C23.1713 17.4732 22.9091 17.2109 22.5854 17.2109H21.0039C20.6802 17.2109 20.418 17.4732 20.418 17.7969V21.5502C20.418 21.8738 20.6802 22.1361 21.0039 22.1361H22.5854C22.9091 22.1361 23.1713 21.8738 23.1713 21.5502C23.1713 21.2265 22.9091 20.9642 22.5854 20.9642H21.5898V20.2595H22.4688C22.7924 20.2595 23.0547 19.9972 23.0547 19.6735C23.0547 19.3498 22.7924 19.0876 22.4688 19.0876H21.5898V18.3828H22.5854Z" fill="#AA8453"/>
<path id="Vector_3" d="M25.7884 18.3828C26.1121 18.3828 26.3744 18.1205 26.3744 17.7969C26.3744 17.4732 26.1121 17.2109 25.7884 17.2109H24.207C23.8834 17.2109 23.6211 17.4732 23.6211 17.7969V21.5502C23.6211 21.8738 23.8834 22.1361 24.207 22.1361H25.7884C26.1121 22.1361 26.3744 21.8738 26.3744 21.5502C26.3744 21.2265 26.1121 20.9642 25.7884 20.9642H24.793V20.2595H25.6719C25.9955 20.2595 26.2578 19.9972 26.2578 19.6735C26.2578 19.3498 25.9955 19.0876 25.6719 19.0876H24.793V18.3828H25.7884Z" fill="#AA8453"/>
<path id="Vector_4" d="M19.9698 18.7657C19.9698 17.8998 19.2404 17.1953 18.3438 17.1953H17.3372C17.337 17.1953 17.3368 17.1953 17.3366 17.1953C17.3363 17.1953 17.3362 17.1953 17.3359 17.1953C17.0123 17.1953 16.75 17.4576 16.75 17.7812V21.5691C16.75 21.8928 17.0123 22.1551 17.3359 22.1551C17.6596 22.1551 17.9219 21.8928 17.9219 21.5691V20.7948L18.9441 21.9563C19.0598 22.0879 19.2216 22.1551 19.3841 22.1551C19.5216 22.1551 19.6597 22.107 19.771 22.009C20.0139 21.7952 20.0375 21.4249 19.8237 21.182L18.9717 20.214C19.5575 19.9763 19.9698 19.4167 19.9698 18.7657ZM18.3438 18.3673C18.5858 18.3673 18.798 18.5535 18.798 18.7658C18.798 18.978 18.5857 19.1643 18.3438 19.1643C18.2436 19.1643 18.0869 19.1648 17.927 19.1656C17.9262 19.0114 17.9256 18.8616 17.9256 18.7659C17.9256 18.6834 17.9253 18.5295 17.9248 18.3673H18.3438V18.3673Z" fill="#AA8453"/>
<path id="Vector_5" d="M26.7605 6.43703C26.908 6.43703 27.0557 6.38164 27.1697 6.27047C27.4012 6.04445 27.4058 5.67344 27.1798 5.44187C25.2748 3.48937 22.724 2.41406 19.9975 2.41406C17.271 2.41406 14.7202 3.48938 12.815 5.4418C12.589 5.67344 12.5936 6.04445 12.8252 6.27039C13.0568 6.49633 13.4277 6.4918 13.6537 6.26023C15.3365 4.5357 17.5894 3.58594 19.9974 3.58594C22.4054 3.58594 24.6583 4.5357 26.341 6.26023C26.4559 6.37797 26.6081 6.43703 26.7605 6.43703Z" fill="#AA8453"/>
<path id="Vector_6" d="M11.9456 4.55414C14.0846 2.37305 16.9441 1.17188 19.9972 1.17188C23.0503 1.17188 25.9097 2.37305 28.0486 4.55414C28.1634 4.67117 28.3151 4.72984 28.4669 4.72984C28.615 4.72984 28.7631 4.67406 28.8771 4.56219C29.1082 4.3357 29.1118 3.96469 28.8852 3.73367C26.5241 1.32602 23.3677 0 19.9972 0C16.6266 0 13.4702 1.32602 11.109 3.73367C10.8824 3.96469 10.886 4.33563 11.1171 4.56219C11.3481 4.78875 11.7192 4.78539 11.9456 4.55414Z" fill="#AA8453"/>
<path id="Vector_7" d="M24.8787 8.32203C25.0253 8.32203 25.1721 8.26734 25.2858 8.1575C25.5186 7.93258 25.5249 7.56164 25.3 7.32898C23.8975 5.8775 22.0152 5.07812 20 5.07812C17.9847 5.07812 16.1024 5.87742 14.6997 7.32891C14.4749 7.56164 14.4812 7.93258 14.7139 8.15742C14.9467 8.38234 15.3177 8.37586 15.5425 8.1432C16.7223 6.92227 18.3053 6.24992 20 6.24992C21.6945 6.24992 23.2775 6.92227 24.4573 8.1432C24.5722 8.26219 24.7254 8.32203 24.8787 8.32203Z" fill="#AA8453"/>
<path id="Vector_8" d="M22.6368 9.95687C22.8592 10.192 23.2301 10.202 23.4652 9.97969C23.7003 9.75727 23.7105 9.38641 23.488 9.15133C22.5708 8.18219 21.3321 7.64844 20 7.64844C18.6679 7.64844 17.4292 8.18219 16.512 9.15141C16.2895 9.38648 16.2997 9.75734 16.5348 9.97977C16.6481 10.087 16.7929 10.1402 16.9374 10.1402C17.0928 10.1402 17.2479 10.0787 17.3631 9.95695C18.0567 9.22398 18.9932 8.82031 20 8.82031C21.0068 8.82031 21.9432 9.22391 22.6368 9.95687Z" fill="#AA8453"/>
<path id="Vector_9" d="M19.9985 10.1797C19.3434 10.1797 18.7202 10.4642 18.2884 10.9603C18.076 11.2044 18.1017 11.5745 18.3459 11.787C18.5899 11.9995 18.96 11.9737 19.1725 11.7295C19.3815 11.4894 19.6825 11.3516 19.9984 11.3516C20.3143 11.3516 20.6153 11.4894 20.8243 11.7295C20.9402 11.8627 21.1029 11.9309 21.2666 11.9309C21.403 11.9309 21.54 11.8835 21.6509 11.787C21.8951 11.5745 21.9208 11.2044 21.7084 10.9603C21.2768 10.4642 20.6536 10.1797 19.9985 10.1797Z" fill="#AA8453"/>
<path id="Vector_10" d="M28.6625 27.875C28.9862 27.875 29.2484 27.6127 29.2484 27.2891C29.2484 26.9654 28.9862 26.7031 28.6625 26.7031H25.168C24.8443 26.7031 24.582 26.9654 24.582 27.2891V35.9112C24.582 36.2349 24.8443 36.4972 25.168 36.4972C25.4916 36.4972 25.7539 36.2349 25.7539 35.9112V32.1044H28.3849C28.7086 32.1044 28.9709 31.8421 28.9709 31.5184C28.9709 31.1948 28.7086 30.9325 28.3849 30.9325H25.7539V27.8749H28.6625V27.875Z" fill="#AA8453"/>
<path id="Vector_11" d="M17.937 27.1568L16.5446 34.1526L14.3666 27.0827C14.1873 26.5007 13.3998 26.4843 13.2303 27.1515L11.0633 34.1528L9.67641 27.1416C9.61352 26.8241 9.30547 26.6174 8.98797 26.6805C8.67055 26.7433 8.46407 27.0515 8.52688 27.3689C10.3334 36.4906 10.2146 35.9301 10.2418 36.0067C10.4952 36.7197 11.5059 36.6876 11.7241 35.9812L13.8079 29.2492C15.9759 36.2859 15.8813 35.9812 15.8902 36.0067C16.1565 36.7556 17.2405 36.6652 17.3873 35.9223L19.0863 27.3855C19.1495 27.0682 18.9434 26.7597 18.626 26.6966C18.3085 26.6331 18.0001 26.8394 17.937 27.1568Z" fill="#AA8453"/>
<path id="Vector_12" d="M20.6875 30.5469C20.3638 30.5469 20.1016 30.8091 20.1016 31.1328V35.9403C20.1016 36.264 20.3638 36.5263 20.6875 36.5263C21.0112 36.5263 21.2734 36.264 21.2734 35.9403V31.1328C21.2734 30.8091 21.0112 30.5469 20.6875 30.5469Z" fill="#AA8453"/>
<path id="Vector_13" d="M21.2734 28.6836C21.2734 28.3599 21.0112 28.0977 20.6875 28.0977C20.3638 28.0977 20.1016 28.3599 20.1016 28.6836V28.9739C20.1016 29.2976 20.3638 29.5598 20.6875 29.5598C21.0112 29.5598 21.2734 29.2976 21.2734 28.9739V28.6836Z" fill="#AA8453"/>
<path id="Vector_14" d="M31.4844 31.1328C31.4844 30.8091 31.2221 30.5469 30.8984 30.5469C30.5748 30.5469 30.3125 30.8091 30.3125 31.1328V35.9403C30.3125 36.264 30.5748 36.5263 30.8984 36.5263C31.2221 36.5263 31.4844 36.264 31.4844 35.9403V31.1328Z" fill="#AA8453"/>
<path id="Vector_15" d="M30.8984 29.5598C31.2221 29.5598 31.4844 29.2976 31.4844 28.9739V28.6836C31.4844 28.3599 31.2221 28.0977 30.8984 28.0977C30.5748 28.0977 30.3125 28.3599 30.3125 28.6836V28.9739C30.3125 29.2976 30.5748 29.5598 30.8984 29.5598Z" fill="#AA8453"/>
<path id="Vector_16" d="M13.6289 24.4531C13.6289 24.7768 13.8912 25.0391 14.2148 25.0391H25.7879C26.1116 25.0391 26.3738 24.7768 26.3738 24.4531C26.3738 24.1295 26.1116 23.8672 25.7879 23.8672H14.2148C13.8912 23.8672 13.6289 24.1295 13.6289 24.4531Z" fill="#AA8453"/>
<path id="Vector_17" d="M3.48828 31.0117C3.16461 31.0117 2.90234 31.274 2.90234 31.5977C2.90234 31.9213 3.16461 32.1836 3.48828 32.1836H4.87555C5.19922 32.1836 5.46148 31.9213 5.46148 31.5977C5.46148 31.274 5.19922 31.0117 4.87555 31.0117H3.48828Z" fill="#AA8453"/>
<path id="Vector_18" d="M36.5084 32.1836C36.8321 32.1836 37.0944 31.9213 37.0944 31.5977C37.0944 31.274 36.8321 31.0117 36.5084 31.0117H35.1211C34.7974 31.0117 34.5352 31.274 34.5352 31.5977C34.5352 31.9213 34.7974 32.1836 35.1211 32.1836H36.5084Z" fill="#AA8453"/>
<path id="Vector_19" d="M35.2497 23.1974H31.952C30.803 23.1974 29.8682 22.2626 29.8682 21.1136V18.2433C29.8682 16.0134 28.054 14.1992 25.8241 14.1992H18.1094C17.7857 14.1992 17.5234 14.4615 17.5234 14.7852C17.5234 15.1088 17.7857 15.3711 18.1094 15.3711H25.8241C27.4078 15.3711 28.6963 16.6595 28.6963 18.2433V21.1136C28.6963 22.9088 30.1568 24.3693 31.952 24.3693H35.2497C37.2231 24.3693 38.8287 25.9748 38.8287 27.9484V35.2498C38.8287 37.2232 37.2231 38.8288 35.2497 38.8288H32.0723C31.7486 38.8288 31.4863 39.091 31.4863 39.4147C31.4863 39.7384 31.7486 40.0006 32.0723 40.0006H35.2497C37.8694 40.0006 40.0005 37.8694 40.0005 35.2497V27.9483C40.0005 25.3287 37.8694 23.1974 35.2497 23.1974Z" fill="#AA8453"/>
<path id="Vector_20" d="M29.729 38.8288H4.75094C2.77742 38.8288 1.17188 37.2233 1.17188 35.2498V27.9484C1.17188 25.9748 2.77742 24.3693 4.75094 24.3693H8.04859C9.84383 24.3693 11.3043 22.9088 11.3043 21.1136V18.2433C11.3043 16.6596 12.5927 15.3711 14.1766 15.3711H15.7663C16.09 15.3711 16.3523 15.1088 16.3523 14.7852C16.3523 14.4615 16.09 14.1992 15.7663 14.1992H14.1766C11.9466 14.1992 10.1324 16.0134 10.1324 18.2433V21.1136C10.1324 22.2626 9.19758 23.1974 8.04859 23.1974H4.75094C2.13125 23.1975 0 25.3288 0 27.9484V35.2498C0 37.8695 2.13125 40.0007 4.75094 40.0007H29.7291C30.0527 40.0007 30.315 39.7384 30.315 39.4148C30.315 39.0911 30.0527 38.8288 29.729 38.8288Z" fill="#AA8453"/>
</g>
</g>
<defs>
<clipPath id="clip0_4917_395">
<rect width="40" height="40" fill="white"/>
</clipPath>
</defs>
</svg>
