<svg width="40" height="40" viewBox="0 0 40 40" fill="none" xmlns="http://www.w3.org/2000/svg">
<g id="019-cocktail">
<g id="Group">
<path id="Vector" d="M24.9553 9.09391C24.6308 9.35914 24.3248 9.52344 23.8028 9.52344C23.134 9.52344 22.8305 9.25688 22.4103 8.88781C21.94 8.47492 21.3549 7.96094 20.2445 7.96094C19.1342 7.96094 18.5491 8.47492 18.0789 8.88789C17.6589 9.25687 17.3553 9.52344 16.6867 9.52344C16.018 9.52344 15.7145 9.25687 15.2944 8.88789C14.8242 8.47492 14.239 7.96094 13.1287 7.96094C12.0185 7.96094 11.4333 8.47492 10.9632 8.88789C10.5431 9.25687 10.2396 9.52344 9.57096 9.52344C9.04956 9.52344 8.74401 9.35945 8.42026 9.09508C8.01464 8.76383 7.44042 8.80383 7.08456 9.1882C6.72839 9.57305 6.73276 10.1491 7.09471 10.5281L9.74026 13.2993C9.96362 13.5334 10.3346 13.5419 10.5687 13.3185C10.8028 13.0951 10.8114 12.7242 10.5879 12.4901L8.77956 10.5958C9.00971 10.658 9.27081 10.6952 9.57104 10.6952C10.6813 10.6952 11.2664 10.1813 11.7366 9.76828C12.1567 9.3993 12.4602 9.13273 13.1288 9.13273C13.7975 9.13273 14.101 9.3993 14.5211 9.76828C14.9914 10.1813 15.5765 10.6952 16.6867 10.6952C17.7971 10.6952 18.3821 10.1813 18.8524 9.76828C19.2724 9.3993 19.576 9.13273 20.2446 9.13273C20.9134 9.13273 21.2169 9.3993 21.6371 9.76836C22.1074 10.1813 22.6925 10.6952 23.8029 10.6952C24.1034 10.6952 24.3647 10.6578 24.5951 10.5956L16.8025 18.758C16.7636 18.7988 16.7184 18.8073 16.6873 18.8073C16.6562 18.8073 16.6109 18.7988 16.572 18.758L12.2061 14.1851C11.9826 13.9509 11.6117 13.9424 11.3777 14.1659C11.1436 14.3893 11.135 14.7602 11.3585 14.9943L15.7243 19.5673C15.9742 19.8291 16.3252 19.9792 16.6872 19.9792C17.0492 19.9792 17.4001 19.8291 17.65 19.5673L26.2807 10.527C26.6428 10.1478 26.6471 9.57164 26.2909 9.18688C25.9348 8.80234 25.3607 8.7625 24.9553 9.09391Z" fill="#AA8453"/>
<path id="Vector_2" d="M37.662 3.20993C37.4953 2.93243 37.1353 2.8429 36.8581 3.00946C36.5806 3.1761 36.4909 3.5361 36.6576 3.81352C37.1636 4.65555 37.431 5.62218 37.431 6.60898C37.431 9.60693 34.992 12.046 31.994 12.046C30.9093 12.046 29.853 11.719 28.9601 11.1176L31.5052 8.45178C31.976 7.95866 32.1018 7.26288 31.8336 6.63601C31.5654 6.00929 30.9754 5.61984 30.2936 5.61984H26.6501C27.1182 3.08086 29.3539 1.17204 31.9941 1.17204C33.1718 1.17204 34.2926 1.54259 35.2352 2.2436C35.4949 2.43681 35.8619 2.3829 36.0549 2.12313C36.2481 1.86353 36.1942 1.4965 35.9345 1.30337C34.7882 0.450719 33.4256 0.000173901 31.994 0.000173901C28.7115 0.000173901 25.943 2.42766 25.4622 5.61984H10.3616L7.93732 0.341579C7.80232 0.0475175 7.45435 -0.0814664 7.16037 0.0536112C6.86623 0.188689 6.7374 0.536578 6.8724 0.830561L9.07208 5.61976H3.0814C2.39961 5.61976 1.80945 6.00914 1.54125 6.63601C1.27305 7.26288 1.39891 7.95858 1.86969 8.4517L14.0428 21.2023C14.3016 21.4734 14.4442 21.8292 14.4442 22.204V28.2103C14.2074 28.1891 13.9717 28.3136 13.8631 28.5407C13.7236 28.8326 13.8472 29.1825 14.1392 29.322C14.2407 29.3705 14.3425 29.416 14.4442 29.4587V35.6484C14.4442 35.72 14.3859 35.7783 14.3143 35.7783H13.8192C11.9794 35.7783 10.2726 36.6928 9.25341 38.2245L8.67786 39.0895C8.55825 39.2693 8.54716 39.5003 8.64919 39.6907C8.75122 39.8811 8.94974 39.9999 9.16567 39.9999H14.017C14.3407 39.9999 14.6029 39.7377 14.6029 39.414C14.6029 39.0903 14.3407 38.8281 14.017 38.8281H10.2597C11.0645 37.6511 12.3908 36.9502 13.8193 36.9502H14.3144C15.0322 36.9502 15.6161 36.3662 15.6161 35.6484V29.8208C15.9729 29.8919 16.3303 29.9279 16.6875 29.9279C17.0448 29.9279 17.402 29.8919 17.7588 29.8208V35.6483C17.7588 36.3661 18.3428 36.9501 19.0606 36.9501H19.5557C20.9841 36.9501 22.3105 37.651 23.1152 38.828H16.3598C16.0361 38.828 15.7739 39.0903 15.7739 39.4139C15.7739 39.7376 16.0361 39.9999 16.3598 39.9999H24.2093C24.4253 39.9999 24.6238 39.881 24.7258 39.6906C24.8278 39.5002 24.8167 39.2692 24.6971 39.0894L24.1216 38.2243C23.1023 36.6928 21.3955 35.7782 19.5558 35.7782H19.0607C18.9891 35.7782 18.9308 35.72 18.9308 35.6483V29.4587C19.0326 29.416 19.1342 29.3705 19.2359 29.322C19.5278 29.1825 19.6514 28.8326 19.512 28.5407C19.4034 28.3136 19.1676 28.1891 18.9308 28.2103V22.204C18.9308 21.8292 19.0733 21.4734 19.3322 21.2023L28.1408 11.9758C29.26 12.7797 30.6083 13.2178 31.9942 13.2178C35.6383 13.2178 38.603 10.2531 38.603 6.6089C38.6028 5.40953 38.2775 4.23414 37.662 3.20993ZM18.4844 20.3931C18.0165 20.8832 17.7588 21.5264 17.7588 22.2041V28.6197C17.0427 28.8015 16.3321 28.8015 15.616 28.6197V22.2041C15.616 21.5264 15.3583 20.8833 14.8904 20.3931L2.71734 7.64257C2.50453 7.4196 2.58804 7.16866 2.61867 7.09702C2.64929 7.02538 2.77328 6.79171 3.0814 6.79171H9.98419C9.98489 6.79171 9.98559 6.79187 9.9863 6.79187C9.98723 6.79187 9.98825 6.79171 9.98919 6.79171H30.2935C30.6015 6.79171 30.7255 7.02538 30.7561 7.09702C30.7868 7.16866 30.8703 7.41968 30.6575 7.64257L18.4844 20.3931Z" fill="#AA8453"/>
</g>
</g>
</svg>
