<svg width="12" height="12" viewBox="0 0 12 12" fill="none" xmlns="http://www.w3.org/2000/svg">
<g id="Frame">
<g id="Group">
<path id="Vector" d="M7.49151 1.30096C7.1424 0.951854 6.57702 0.951644 6.2278 1.30105L5.80808 1.72086C5.45973 2.06931 5.45983 2.63621 5.80827 2.98457L8.82775 6.00315L5.80825 9.02174C5.4598 9.37018 5.45973 9.93709 5.80815 10.2854L6.22771 10.7052C6.57646 11.0541 7.1421 11.0546 7.49141 10.7053L11.563 6.63514C11.7318 6.46635 11.8248 6.24191 11.8248 6.00315C11.8248 5.76439 11.7318 5.53996 11.563 5.37125L7.49151 1.30096ZM11.3055 6.37773L7.234 10.4479C7.02163 10.6603 6.68734 10.65 6.48512 10.4477L6.06557 10.028C5.85918 9.82154 5.85918 9.48563 6.06566 9.27915L9.21393 6.13185C9.24806 6.09771 9.26724 6.05141 9.26724 6.00313C9.26724 5.95485 9.24806 5.90855 9.21393 5.87441L6.06568 2.72715C5.8592 2.52067 5.85911 2.18476 6.0655 1.97828L6.48522 1.55846C6.68521 1.35847 7.0341 1.35838 7.23409 1.55837L11.3055 5.62876C11.3549 5.6778 11.394 5.73614 11.4207 5.8004C11.4473 5.86467 11.4609 5.93358 11.4607 6.00315C11.4607 6.14467 11.4056 6.27763 11.3055 6.37773Z" fill="#AA8453"/>
<path id="Vector_2" d="M6.45428 6.0024C6.45428 5.76365 6.3613 5.53921 6.1925 5.37051L2.12096 1.30021C1.77254 0.952045 1.20571 0.951951 0.857262 1.3003L0.437637 1.72012C0.0891915 2.06847 0.0892852 2.63537 0.43773 2.98382L3.45721 6.0024L0.437824 9.02099C0.0885821 9.37005 0.0883477 9.93538 0.437637 10.2847L0.857191 10.7044C1.20592 11.0533 1.77168 11.0539 2.12099 10.7046L6.19253 6.6344C6.3613 6.4656 6.45428 6.24116 6.45428 6.0024ZM5.93509 6.37698L1.86355 10.4472C1.65732 10.6534 1.32212 10.6545 1.11458 10.447L0.695027 10.0273C0.488613 9.82087 0.487676 9.48594 0.695215 9.27841L3.84341 6.1311C3.87754 6.09696 3.89672 6.05066 3.89672 6.00238C3.89672 5.95411 3.87754 5.9078 3.84341 5.87366L0.695145 2.7264C0.48866 2.51992 0.48866 2.18401 0.695051 1.97753L1.11468 1.55772C1.32125 1.35149 1.65716 1.35123 1.86355 1.55762L5.93509 5.62792C5.98442 5.67699 6.02352 5.73535 6.05015 5.79963C6.07677 5.86391 6.09038 5.93283 6.0902 6.0024C6.0902 6.14392 6.0351 6.27688 5.93509 6.37698Z" fill="#AA8453"/>
</g>
</g>
</svg>
