<svg width="16" height="16" viewBox="0 0 16 16" fill="none" xmlns="http://www.w3.org/2000/svg">
<g id="Frame">
<g id="Group">
<path id="Vector" d="M9.99128 1.732C9.52581 1.26654 8.77197 1.26625 8.30634 1.73213L7.74672 2.29188C7.28225 2.75647 7.28237 3.51235 7.74697 3.97682L11.7729 8.0016L7.74693 12.0264C7.28234 12.491 7.28225 13.2468 7.74681 13.7113L8.30622 14.2709C8.77122 14.7362 9.5254 14.7369 9.99115 14.2712L15.4199 8.84425C15.6451 8.61919 15.769 8.31994 15.769 8.0016C15.769 7.68325 15.6451 7.384 15.4199 7.15907L9.99128 1.732ZM15.0767 8.50103L9.64793 13.928C9.36478 14.2111 8.91906 14.1973 8.64943 13.9277L8.09003 13.3681C7.81484 13.0928 7.81484 12.6449 8.09015 12.3696L12.2878 8.17319C12.3334 8.12767 12.3589 8.06594 12.3589 8.00157C12.3589 7.9372 12.3334 7.87546 12.2878 7.82994L8.09018 3.6336C7.81487 3.35829 7.81475 2.91041 8.08993 2.6351L8.64956 2.07535C8.91622 1.80869 9.3814 1.80857 9.64806 2.07522L15.0767 7.50241C15.1425 7.56779 15.1946 7.64558 15.2301 7.73127C15.2657 7.81695 15.2838 7.90884 15.2836 8.0016C15.2836 8.19028 15.2101 8.36757 15.0767 8.50103Z" fill="#AA8453"/>
<path id="Vector_2" d="M8.6057 8.0006C8.6057 7.68226 8.48173 7.38301 8.25667 7.15807L2.82795 1.73101C2.36339 1.26679 1.60761 1.26666 1.14302 1.73113L0.583516 2.29088C0.118922 2.75535 0.119047 3.51123 0.583641 3.97582L4.60961 8.0006L0.583766 12.0254C0.118109 12.4908 0.117797 13.2446 0.583516 13.7103L1.14292 14.2699C1.60789 14.7352 2.36223 14.7359 2.82798 14.2702L8.2567 8.84326C8.48173 8.6182 8.6057 8.31895 8.6057 8.0006ZM7.91345 8.50004L2.48473 13.927C2.20977 14.2019 1.76283 14.2034 1.48611 13.9267L0.926703 13.3671C0.651484 13.0919 0.650234 12.6453 0.926953 12.3686L5.12455 8.1722C5.17006 8.12667 5.19562 8.06494 5.19562 8.00057C5.19562 7.9362 5.17006 7.87447 5.12455 7.82895L0.926859 3.6326C0.651547 3.35729 0.651547 2.90941 0.926734 2.6341L1.48623 2.07435C1.76167 1.79938 2.20955 1.79904 2.48473 2.07423L7.91345 7.50129C7.97922 7.56671 8.03136 7.64453 8.06686 7.73024C8.10236 7.81594 8.12051 7.90784 8.12027 8.0006C8.12027 8.18929 8.0468 8.36657 7.91345 8.50004Z" fill="#AA8453"/>
</g>
</g>
</svg>
