<svg width="59" height="60" viewBox="0 0 59 60" fill="none" xmlns="http://www.w3.org/2000/svg">
<g id="Frame">
<g id="Group">
<path id="Vector" d="M34.022 34.2291H46.6904C46.4552 37.2477 45.2047 40.0593 43.1855 42.1093C41.1662 44.1593 38.525 45.2987 35.7828 45.3029C35.5383 45.3029 35.3038 45.4102 35.1309 45.6012C34.9581 45.7922 34.8609 46.0513 34.8609 46.3214V52.8769C34.8609 53.147 34.9581 53.4061 35.1309 53.5971C35.3038 53.7881 35.5383 53.8954 35.7828 53.8954C46.1078 53.8954 54.5061 44.6163 54.5061 33.2105V11.5967C54.5061 11.3265 54.409 11.0675 54.2361 10.8765C54.0632 10.6854 53.8287 10.5781 53.5842 10.5781H34.022C33.7775 10.5781 33.5431 10.6854 33.3702 10.8765C33.1973 11.0675 33.1002 11.3265 33.1002 11.5967V33.2105C33.1002 33.4807 33.1973 33.7397 33.3702 33.9307C33.5431 34.1218 33.7775 34.2291 34.022 34.2291ZM34.9439 12.6152H52.6623V33.2105C52.6623 43.1517 45.586 51.3001 36.7047 51.8298V47.3033C43.3293 46.7798 48.5729 40.6582 48.5729 33.2105C48.5729 32.9404 48.4758 32.6813 48.3029 32.4903C48.13 32.2993 47.8955 32.192 47.651 32.192H34.9439V12.6152ZM6.375 34.2291H19.0453C18.8105 37.2479 17.56 40.0598 15.5407 42.1099C13.5214 44.1599 10.8799 45.2992 8.13763 45.3029C7.89313 45.3029 7.65865 45.4102 7.48576 45.6012C7.31288 45.7922 7.21575 46.0513 7.21575 46.3214V52.8769C7.21575 53.147 7.31288 53.4061 7.48576 53.5971C7.65865 53.7881 7.89313 53.8954 8.13763 53.8954C18.4626 53.8954 26.8609 44.6163 26.8609 33.2105V11.5967C26.8609 11.3265 26.7638 11.0675 26.5909 10.8765C26.418 10.6854 26.1835 10.5781 25.939 10.5781H6.375C6.1305 10.5781 5.89602 10.6854 5.72314 10.8765C5.55025 11.0675 5.45312 11.3265 5.45312 11.5967V33.2105C5.45312 33.4807 5.55025 33.7397 5.72314 33.9307C5.89602 34.1218 6.1305 34.2291 6.375 34.2291ZM7.29688 12.6152H25.0172V33.2105C25.0172 43.1517 17.939 51.3001 9.0595 51.8298V47.3033C15.6841 46.7798 20.9259 40.6582 20.9259 33.2105C20.9259 32.9404 20.8288 32.6813 20.6559 32.4903C20.483 32.2993 20.2485 32.192 20.004 32.192H7.29688V12.6152Z" fill="#AA8453"/>
</g>
</g>
</svg>
